<svg width="32" height="32" viewBox="0 0 32 32" fill="none" xmlns="http://www.w3.org/2000/svg">
<g clip-path="url(#clip0_4365_5858)">
<path d="M23.8899 5H8.11011C6.39244 5 5 6.39244 5 8.11011V23.8899C5 25.6076 6.39244 27 8.11011 27H23.8899C25.6076 27 27 25.6076 27 23.8899V8.11011C27 6.39244 25.6076 5 23.8899 5Z" fill="black"/>
<path d="M16.3809 9.56601L15.3215 11.0715C15.2382 11.1898 15.1279 11.2864 14.9996 11.3533C14.8713 11.4201 14.7289 11.4552 14.5842 11.4556H8.81006V9.55981L16.3809 9.56601Z" fill="white"/>
<path d="M23.5741 9.56616L14.4854 22.4403H8.42627L17.515 9.56616H23.5741Z" fill="white"/>
<path d="M15.625 22.4402L16.6906 20.9285C16.7742 20.8109 16.8848 20.7152 17.0131 20.6494C17.1414 20.5837 17.2837 20.5497 17.4279 20.5506H23.1958V22.4092L15.625 22.4402Z" fill="white"/>
</g>
<defs>
<clipPath id="clip0_4365_5858">
<rect x="5" y="5" width="22" height="22" rx="3.3" fill="white"/>
</clipPath>
</defs>
</svg>
